# xmcd
#
# Track frame offsets: 
#        150
#        13669
#        26676
#        39956
#        52259
#        66003
#        76264
#        88335
#        100516
#        114659
#        128222
#        141125
#        154234
#        166614
#        178834
#        191509
#        202989
#        214839
#        227347
#        238976
#        254067
#        265546
#        277868
#        290571
#        302630
#        314004
#
# Disc length: 4315 seconds
#
# Revision: 0
# Processed by: cddbd v1.5.2PL0 Copyright (c) Steve Scherf et al.
# Submitted via: ExactAudioCopy v1.0b1
#
DISCID=7110d91a
DTITLE=Pee Wee Crayton - Pee Wee Crayton Collection 1947-62 [CD1]
DYEAR=2017
DGENRE=Blues
TTITLE0=After Hours Boogie (1947)
TTITLE1=Why Did You Go (1947)
TTITLE2=Don't Ever Fall In Love (1947)
TTITLE3=Pee Wee Special (1947)
TTITLE4=Blues After Hours (1948)
TTITLE5=I'm Still In Love With You (1948)
TTITLE6=Texas Hop (1948)
TTITLE7=Central Avenue Blues (1948)
TTITLE8=Rock Island Blues (1949)
TTITLE9=When Darkness Falls (1949)
TTITLE10=Bop Hop (1949)
TTITLE11=I Love You So (1949)
TTITLE12=Brand New Woman (1949)
TTITLE13=Old Fashioned Baby (1949)
TTITLE14=Bounce Peewee (1949)
TTITLE15=Rockin' The Blues (1950)
TTITLE16=Please Come Back (1950)
TTITLE17=Some Rainy Day (1950)
TTITLE18=Huckle Boogie (1950)
TTITLE19=Louella Brown (1950)
TTITLE20=Good Little Woman (1950)
TTITLE21=Tired Of Traveling (1951)
TTITLE22=Change Your Way Of Loving (1951)
TTITLE23=Poppa Stoppa (1951)
TTITLE24=Cool Evening (1951)
TTITLE25=Have You Lost Your Love For Me (1951)
EXTD=
EXTT0=
EXTT1=
EXTT2=
EXTT3=
EXTT4=
EXTT5=
EXTT6=
EXTT7=
EXTT8=
EXTT9=
EXTT10=
EXTT11=
EXTT12=
EXTT13=
EXTT14=
EXTT15=
EXTT16=
EXTT17=
EXTT18=
EXTT19=
EXTT20=
EXTT21=
EXTT22=
EXTT23=
EXTT24=
EXTT25=
PLAYORDER=
